<svg id="svg" version="1.1" xmlns="http://www.w3.org/2000/svg" xmlns:xlink="http://www.w3.org/1999/xlink" width="400" height="400" viewBox="0, 0, 400,400"><g id="svgg"><path id="path0" d="M152.600 41.477 C 147.656 42.154,143.936 47.605,145.213 52.300 C 146.504 57.045,148.965 58.827,155.269 59.578 C 166.339 60.898,175.069 68.752,180.416 82.200 C 182.231 86.766,182.128 87.152,178.454 89.565 C 167.045 97.055,159.200 110.881,159.200 123.500 C 159.200 126.834,158.830 127.042,155.200 125.745 C 154.210 125.391,152.770 124.934,152.000 124.728 C 151.230 124.523,149.970 124.173,149.200 123.951 C 146.915 123.291,144.517 122.707,139.400 121.564 C 130.832 119.649,114.027 117.600,106.893 117.600 C 102.563 117.600,90.649 118.864,87.400 119.667 C 78.765 121.804,73.410 124.089,68.654 127.667 C 64.501 130.791,59.200 137.919,59.200 140.380 C 59.200 140.617,59.041 141.123,58.847 141.505 C 57.621 143.920,57.110 153.831,58.030 157.354 C 58.266 158.259,58.636 159.720,58.851 160.600 C 60.825 168.677,67.877 180.697,76.570 190.800 C 78.154 192.640,90.258 204.739,91.800 206.023 C 92.460 206.572,94.620 208.384,96.600 210.049 C 108.955 220.440,124.554 230.716,140.196 238.769 C 144.306 240.885,144.284 240.842,143.658 245.400 C 142.167 256.255,142.482 270.932,144.431 281.400 C 145.358 286.376,146.359 290.849,147.206 293.800 C 147.459 294.680,147.762 295.897,147.879 296.505 C 147.996 297.113,148.251 297.708,148.446 297.829 C 148.641 297.949,148.800 298.451,148.800 298.944 C 148.800 299.437,148.949 300.011,149.130 300.220 C 149.312 300.429,149.705 301.410,150.002 302.400 C 150.300 303.390,150.662 304.380,150.807 304.600 C 150.951 304.820,151.498 306.080,152.021 307.400 C 154.867 314.573,162.685 327.885,166.000 331.200 C 166.110 331.310,166.915 332.300,167.789 333.400 C 170.656 337.009,178.895 345.022,182.388 347.600 C 183.133 348.150,184.206 348.976,184.771 349.435 C 186.287 350.664,191.664 354.230,193.663 355.332 C 194.619 355.858,196.261 356.763,197.314 357.344 C 199.822 358.727,200.176 358.695,203.866 356.741 C 211.358 352.774,219.726 346.492,226.976 339.393 C 228.325 338.073,233.335 332.388,233.967 331.460 C 234.290 330.987,234.663 330.510,234.796 330.400 C 234.929 330.290,235.471 329.570,236.000 328.800 C 236.529 328.030,237.060 327.310,237.181 327.200 C 237.572 326.845,240.800 321.982,240.800 321.749 C 240.800 321.625,241.142 321.043,241.560 320.456 C 242.543 319.075,246.828 310.733,247.753 308.400 C 248.145 307.410,248.701 306.060,248.989 305.400 C 250.208 302.605,251.344 299.330,252.389 295.600 C 252.666 294.610,253.041 293.350,253.221 292.800 C 256.824 281.829,258.247 263.827,256.746 248.200 C 255.948 239.886,255.520 240.977,260.600 238.374 C 266.683 235.257,268.954 234.013,272.200 232.020 C 273.740 231.074,275.602 229.957,276.337 229.536 C 293.261 219.863,319.756 197.270,327.577 185.843 C 327.894 185.379,328.263 184.910,328.396 184.800 C 328.529 184.690,329.071 183.970,329.600 183.200 C 330.129 182.430,330.661 181.710,330.782 181.600 C 331.060 181.347,332.703 178.853,334.470 176.000 C 336.815 172.213,340.800 163.479,340.800 162.126 C 340.800 161.831,340.959 161.277,341.153 160.895 C 342.498 158.245,342.906 147.183,341.813 142.987 C 339.264 133.198,331.208 125.404,319.800 121.689 C 315.035 120.137,311.725 119.364,307.600 118.839 C 294.978 117.235,291.971 117.233,277.600 118.822 C 272.537 119.381,265.308 120.581,260.600 121.644 C 259.720 121.842,258.190 122.169,257.200 122.369 C 256.210 122.569,253.960 123.120,252.200 123.594 C 247.143 124.955,246.231 125.180,245.734 125.190 C 245.440 125.196,245.173 124.054,245.011 122.100 C 243.842 108.030,235.063 93.803,224.125 88.253 C 222.299 87.326,222.243 87.073,223.202 84.088 C 225.603 76.613,230.811 68.723,235.803 64.997 C 236.681 64.341,237.490 63.705,237.600 63.584 C 238.978 62.067,244.503 60.103,248.800 59.601 C 255.784 58.787,259.174 55.704,259.194 50.149 C 259.243 36.579,235.736 39.265,220.600 54.558 C 214.511 60.710,212.573 63.618,207.645 74.000 C 207.488 74.330,206.940 75.950,206.426 77.600 C 205.053 82.011,205.277 81.785,202.150 81.916 L 199.384 82.031 198.058 77.864 C 194.144 65.562,184.240 52.578,174.700 47.239 C 173.875 46.778,172.615 46.074,171.900 45.676 C 166.950 42.918,157.342 40.828,152.600 41.477 M205.567 100.428 C 220.388 102.836,229.322 116.229,226.166 131.305 C 225.990 132.142,225.481 132.613,224.067 133.245 C 220.887 134.669,214.680 137.601,213.000 138.473 C 208.528 140.796,205.292 142.582,204.338 143.253 C 203.754 143.664,203.124 144.004,202.938 144.009 C 202.752 144.014,202.150 144.370,201.600 144.800 C 200.269 145.841,199.989 145.810,197.518 144.344 C 191.438 140.738,186.627 138.169,181.182 135.621 L 178.564 134.396 177.982 131.898 C 177.243 128.727,177.226 120.314,177.955 118.388 C 182.695 105.859,193.948 98.540,205.567 100.428 M117.179 136.420 C 125.939 137.494,130.965 138.268,135.000 139.164 C 135.880 139.359,137.500 139.715,138.600 139.955 C 139.700 140.194,141.230 140.557,142.000 140.760 C 145.453 141.674,148.294 142.461,149.400 142.811 C 154.056 144.285,158.323 145.695,159.000 145.984 C 159.440 146.171,161.780 147.091,164.200 148.027 C 169.124 149.931,173.834 152.040,178.600 154.474 C 180.360 155.373,182.561 156.489,183.490 156.954 C 185.724 158.071,185.643 158.531,182.680 161.600 C 180.309 164.055,175.242 170.027,173.329 172.620 C 168.824 178.727,164.800 184.577,164.800 185.020 C 164.800 185.161,164.461 185.754,164.047 186.338 C 162.618 188.355,161.171 191.025,157.839 197.800 C 153.096 207.442,153.112 207.404,149.606 217.600 C 147.862 222.669,148.252 222.601,141.757 218.969 C 110.372 201.419,84.674 177.555,77.179 159.000 C 75.596 155.082,75.244 148.160,76.494 145.552 C 78.289 141.808,84.463 138.499,92.000 137.242 C 93.430 137.004,95.500 136.648,96.600 136.451 C 99.449 135.943,113.122 135.922,117.179 136.420 M302.833 136.371 C 304.025 136.575,306.260 136.952,307.800 137.209 C 322.549 139.669,327.558 146.940,322.813 159.000 C 321.350 162.717,317.119 169.997,314.598 173.135 C 314.304 173.501,313.123 174.970,311.974 176.400 C 301.093 189.942,279.358 207.162,258.243 218.969 C 251.577 222.697,251.962 222.773,250.266 217.400 C 247.842 209.719,246.863 207.363,242.130 197.800 C 236.875 187.183,226.706 171.224,223.652 168.800 C 223.513 168.690,222.504 167.520,221.409 166.200 C 220.314 164.880,218.357 162.682,217.060 161.315 C 214.406 158.518,214.390 158.184,216.850 156.852 C 219.918 155.189,225.334 152.484,227.400 151.583 C 228.500 151.103,230.300 150.311,231.400 149.824 C 232.500 149.336,234.930 148.352,236.800 147.637 C 238.670 146.923,240.513 146.172,240.895 145.969 C 241.277 145.766,241.916 145.600,242.315 145.600 C 242.714 145.600,243.211 145.452,243.420 145.272 C 243.629 145.092,245.150 144.530,246.800 144.024 C 248.450 143.517,250.250 142.948,250.800 142.759 C 251.350 142.570,252.880 142.129,254.200 141.779 C 263.348 139.356,270.023 137.995,276.600 137.214 C 278.580 136.979,281.370 136.632,282.800 136.444 C 286.401 135.970,300.199 135.920,302.833 136.371 M203.200 173.067 C 205.460 175.473,210.726 181.719,212.265 183.820 C 212.741 184.469,213.740 185.810,214.484 186.800 C 218.389 191.990,218.602 192.582,216.700 192.941 C 215.985 193.075,214.140 193.438,212.600 193.747 C 202.559 195.760,181.385 194.644,181.879 192.128 C 181.951 191.763,185.899 185.872,187.058 184.400 C 189.996 180.669,194.339 175.609,196.742 173.117 C 200.153 169.579,199.926 169.581,203.200 173.067 M175.080 209.439 C 178.348 210.340,185.206 211.780,189.090 212.382 C 198.926 213.906,217.350 212.266,225.546 209.136 C 226.578 208.743,228.000 209.029,228.000 209.631 C 228.000 209.839,228.378 210.862,228.840 211.904 C 229.908 214.316,230.132 214.876,231.193 217.800 C 231.672 219.120,232.230 220.513,232.432 220.895 C 232.634 221.277,232.800 221.941,232.800 222.371 C 232.800 222.801,232.959 223.251,233.154 223.371 C 233.349 223.492,233.604 224.087,233.721 224.695 C 233.998 226.130,234.630 228.412,234.998 229.303 C 235.402 230.282,230.574 232.273,219.800 235.572 C 205.283 240.016,191.060 239.394,173.865 233.564 C 166.926 231.212,164.659 230.143,164.958 229.365 C 165.093 229.014,165.312 228.247,165.445 227.663 C 165.722 226.444,167.875 219.797,168.381 218.600 C 168.567 218.160,168.949 217.170,169.230 216.400 C 169.512 215.630,170.160 214.066,170.672 212.924 C 171.183 211.782,171.777 210.387,171.991 209.824 C 172.452 208.612,172.196 208.644,175.080 209.439 M163.905 249.202 C 164.587 249.596,172.237 252.185,174.600 252.822 C 182.582 254.971,184.163 255.302,190.800 256.215 C 195.688 256.888,204.582 256.978,208.367 256.393 C 214.934 255.379,216.843 255.016,220.400 254.105 C 222.490 253.570,224.740 252.994,225.400 252.825 C 226.060 252.656,229.167 251.653,232.304 250.596 C 235.442 249.540,238.108 248.774,238.229 248.895 C 238.748 249.414,239.184 254.648,239.192 260.436 C 239.200 266.387,238.977 269.254,237.929 276.727 L 237.463 280.054 234.631 281.379 C 232.116 282.557,230.490 283.280,227.800 284.421 C 226.680 284.896,223.269 286.023,221.600 286.470 C 220.830 286.676,219.570 287.020,218.800 287.233 C 207.826 290.274,192.261 290.265,181.100 287.211 C 180.275 286.985,179.015 286.641,178.300 286.447 C 176.691 286.011,173.273 284.876,172.200 284.421 C 168.888 283.017,167.873 282.560,165.383 281.353 L 162.566 279.987 162.094 276.693 C 160.756 267.343,160.430 254.138,161.433 249.900 C 161.710 248.731,162.638 248.469,163.905 249.202 M174.200 303.986 C 190.772 308.753,210.652 308.925,224.400 304.420 C 230.854 302.306,230.858 302.335,225.576 311.923 C 221.061 320.119,203.687 337.600,200.057 337.600 C 198.578 337.600,190.961 331.636,186.164 326.722 C 180.075 320.485,176.064 314.999,172.037 307.400 C 169.514 302.641,169.516 302.638,174.200 303.986 " stroke="none" fill="#454535" fill-rule="evenodd"></path><path id="path1" d="M102.400 139.023 C 98.646 139.439,94.440 140.078,93.000 140.451 C 87.633 141.843,85.655 142.637,82.800 144.551 C 77.196 148.307,76.778 155.635,81.594 165.665 C 82.087 166.691,82.366 167.731,82.215 167.975 C 82.059 168.228,82.170 168.372,82.470 168.310 C 82.764 168.249,82.975 168.511,82.944 168.900 C 82.914 169.285,83.139 169.600,83.444 169.600 C 83.750 169.600,84.000 169.791,84.000 170.024 C 84.000 170.257,83.785 170.314,83.521 170.151 C 81.522 168.916,89.389 178.199,95.794 184.633 C 109.132 198.033,123.468 208.742,141.757 218.969 C 148.252 222.601,147.862 222.669,149.606 217.600 C 153.112 207.404,153.096 207.442,157.839 197.800 C 161.171 191.025,162.618 188.355,164.047 186.338 C 164.461 185.754,164.800 185.161,164.800 185.020 C 164.800 184.577,168.824 178.727,173.329 172.620 C 174.114 171.556,179.880 164.507,180.391 163.987 C 183.127 161.202,185.310 158.772,185.000 158.857 C 184.780 158.917,182.170 157.783,179.200 156.336 C 172.513 153.079,172.106 152.899,166.200 150.598 C 163.560 149.569,161.040 148.582,160.600 148.404 C 160.160 148.226,159.170 147.864,158.400 147.600 C 157.630 147.336,156.640 146.976,156.200 146.800 C 153.472 145.712,145.358 143.614,137.600 141.991 C 136.390 141.738,134.770 141.384,134.000 141.205 C 133.230 141.026,131.070 140.667,129.200 140.408 C 127.330 140.149,124.720 139.767,123.400 139.559 C 120.889 139.165,104.823 138.754,102.400 139.023 M283.200 139.645 C 275.824 140.617,272.456 141.167,268.400 142.060 C 267.410 142.278,265.880 142.614,265.000 142.806 C 262.133 143.434,256.229 144.870,255.000 145.240 C 248.827 147.094,240.153 150.257,235.432 152.374 C 234.535 152.777,232.450 153.689,230.800 154.401 C 229.150 155.113,225.910 156.696,223.600 157.918 C 221.290 159.140,218.904 160.393,218.298 160.701 L 217.195 161.261 220.298 164.927 C 222.004 166.943,223.635 168.842,223.922 169.147 C 224.210 169.452,225.716 171.434,227.270 173.551 C 228.824 175.668,230.569 177.825,231.148 178.344 C 231.727 178.863,231.956 179.156,231.659 178.995 C 231.292 178.796,231.339 179.040,231.805 179.751 C 232.183 180.328,232.761 180.800,233.089 180.800 C 233.453 180.800,233.597 181.032,233.457 181.395 C 233.332 181.723,233.425 181.948,233.664 181.895 C 233.904 181.843,234.191 182.050,234.302 182.356 C 234.437 182.728,234.335 182.807,233.990 182.594 C 233.651 182.384,233.575 182.435,233.766 182.745 C 233.925 183.002,234.202 183.123,234.381 183.012 C 234.746 182.786,238.227 188.026,241.281 193.400 C 244.246 198.619,250.020 211.065,251.209 214.800 C 251.384 215.350,251.974 217.005,252.520 218.477 C 253.066 219.950,253.412 221.255,253.289 221.377 C 251.527 223.139,265.787 214.824,274.360 209.090 C 288.490 199.640,304.436 185.782,311.974 176.400 C 313.123 174.970,314.304 173.501,314.598 173.135 C 317.119 169.997,321.350 162.717,322.813 159.000 C 324.104 155.719,324.764 151.229,324.329 148.691 C 323.924 146.327,322.394 142.963,322.008 143.587 C 321.848 143.845,320.971 143.608,319.654 142.952 C 316.895 141.577,313.968 140.810,307.635 139.800 C 303.472 139.137,287.810 139.037,283.200 139.645 " stroke="none" fill="#fbcb2c" fill-rule="evenodd"></path><path id="path2" d="M0.000 200.000 L 0.000 400.000 200.000 400.000 L 400.000 400.000 400.000 200.000 L 400.000 0.000 200.000 0.000 L 0.000 0.000 0.000 200.000 M162.800 42.265 C 179.203 46.187,192.763 60.361,198.900 80.000 C 199.719 82.620,204.868 83.010,205.434 80.494 C 208.689 66.014,222.612 48.917,234.800 44.434 C 235.570 44.151,236.560 43.762,237.000 43.569 C 244.164 40.432,253.711 40.743,256.758 44.213 C 262.489 50.741,258.693 58.405,249.147 59.582 C 237.144 61.061,226.626 71.267,223.009 84.942 L 222.495 86.884 224.312 88.142 C 237.392 97.202,243.844 107.663,245.010 121.697 C 245.339 125.652,245.026 125.599,253.600 123.144 C 254.370 122.923,255.810 122.577,256.800 122.374 C 257.790 122.171,259.320 121.842,260.200 121.643 C 279.271 117.327,300.239 116.544,313.000 119.671 C 325.360 122.700,332.383 126.703,337.437 133.600 C 341.760 139.500,344.042 151.693,342.047 158.240 C 341.852 158.878,341.471 160.210,341.200 161.200 C 340.375 164.211,338.358 169.261,337.127 171.400 C 336.873 171.840,336.127 173.190,335.468 174.400 C 330.506 183.512,318.926 197.010,308.000 206.416 C 306.350 207.837,304.910 209.089,304.800 209.200 C 303.430 210.572,294.161 217.725,290.253 220.426 C 288.522 221.621,286.002 223.375,284.653 224.322 C 283.304 225.270,281.210 226.639,280.000 227.365 C 278.790 228.091,276.270 229.638,274.400 230.802 C 272.530 231.966,270.100 233.404,269.000 233.997 C 267.900 234.590,266.190 235.548,265.200 236.125 C 264.210 236.702,261.716 238.021,259.659 239.056 L 255.918 240.937 256.182 242.369 C 258.231 253.444,257.778 271.666,255.123 285.000 C 254.330 288.982,253.894 290.724,252.018 297.400 C 251.716 298.473,250.008 303.170,248.853 306.101 C 247.618 309.234,245.092 314.467,243.253 317.700 C 242.784 318.525,242.031 319.851,241.580 320.647 C 234.927 332.394,220.512 347.063,208.793 354.011 C 206.613 355.304,205.287 356.071,202.588 357.600 C 199.983 359.076,197.611 358.168,188.964 352.385 C 168.275 338.549,153.517 317.715,146.895 293.000 C 146.659 292.120,146.271 290.680,146.033 289.800 C 142.721 277.576,141.816 258.250,143.831 242.800 C 144.102 240.727,144.374 240.977,138.600 237.982 C 124.530 230.685,110.541 221.495,97.600 211.050 C 95.950 209.718,94.510 208.532,94.400 208.414 C 94.290 208.296,92.674 206.850,90.809 205.200 C 86.506 201.393,80.945 195.830,77.600 191.987 C 76.171 190.344,74.911 188.910,74.800 188.800 C 69.357 183.368,60.816 168.456,58.879 161.000 C 58.650 160.120,58.269 158.659,58.032 157.754 C 57.511 155.767,57.455 145.210,57.958 143.919 C 58.155 143.413,58.554 142.190,58.845 141.200 C 59.954 137.417,62.750 132.933,65.865 129.941 C 67.598 128.277,73.579 124.000,74.174 124.000 C 74.303 124.000,75.172 123.660,76.104 123.244 C 89.097 117.453,108.113 116.159,129.300 119.624 C 135.788 120.685,136.619 120.843,141.900 122.025 C 146.608 123.079,151.605 124.439,155.227 125.654 C 159.140 126.965,159.200 126.927,159.200 123.100 C 159.201 115.403,162.157 106.973,167.302 100.000 C 170.428 95.763,177.936 89.017,180.700 87.963 C 183.349 86.953,178.023 75.068,172.000 68.548 C 170.105 66.497,166.287 63.200,165.806 63.200 C 165.651 63.200,165.046 62.863,164.462 62.452 C 162.703 61.213,158.823 60.060,154.800 59.581 C 148.340 58.812,144.769 55.495,144.815 50.304 C 144.880 42.929,152.093 39.705,162.800 42.265 M198.400 100.602 C 184.535 103.235,175.320 115.725,177.595 128.800 C 177.844 130.230,178.141 132.031,178.256 132.802 C 178.460 134.167,178.632 134.287,184.733 137.310 C 188.180 139.018,191.900 140.956,193.000 141.617 C 194.100 142.277,195.270 142.934,195.600 143.076 C 195.930 143.218,196.986 143.868,197.947 144.519 C 199.900 145.843,199.758 145.870,204.000 143.348 C 207.657 141.174,210.732 139.540,216.000 136.973 C 221.359 134.361,221.794 134.160,224.301 133.135 C 226.153 132.379,226.605 130.763,226.577 125.000 C 226.518 112.476,218.255 102.756,205.802 100.565 C 202.167 99.925,201.958 99.926,198.400 100.602 M97.200 136.444 C 89.721 137.632,88.793 137.847,84.800 139.328 C 74.014 143.327,72.770 151.740,80.810 166.300 C 81.326 167.235,81.895 168.000,82.074 168.000 C 82.253 168.000,82.400 168.270,82.400 168.600 C 82.400 168.930,82.595 169.200,82.833 169.200 C 83.072 169.200,83.207 169.063,83.133 168.895 C 83.060 168.727,82.486 167.512,81.858 166.195 C 79.176 160.569,78.400 157.781,78.400 153.767 C 78.400 145.642,83.563 141.851,97.800 139.523 C 101.991 138.838,118.138 138.842,123.200 139.530 C 130.980 140.587,132.863 140.926,141.600 142.844 C 146.551 143.930,154.202 146.003,156.200 146.800 C 156.640 146.976,157.630 147.336,158.400 147.600 C 159.170 147.864,160.160 148.226,160.600 148.404 C 161.040 148.582,163.484 149.541,166.032 150.536 C 172.544 153.078,174.338 153.868,179.907 156.651 C 184.074 158.733,186.290 159.321,184.945 157.988 C 184.507 157.554,171.965 151.245,169.586 150.262 C 168.604 149.856,167.260 149.286,166.600 148.996 C 164.991 148.288,161.761 147.113,154.800 144.704 C 149.196 142.765,147.795 142.331,144.800 141.609 C 144.030 141.424,142.230 140.977,140.800 140.617 C 132.548 138.539,129.036 137.933,116.400 136.409 C 112.381 135.924,100.336 135.946,97.200 136.444 M283.200 136.464 C 275.617 137.344,270.010 138.164,266.800 138.864 C 261.516 140.015,258.281 140.762,256.600 141.217 C 249.768 143.068,236.990 147.406,232.600 149.366 C 231.500 149.857,229.970 150.510,229.200 150.818 C 228.034 151.284,219.959 155.327,215.900 157.476 C 214.500 158.217,214.514 158.777,215.969 160.170 C 217.305 161.451,216.442 161.705,223.600 157.918 C 225.910 156.696,229.150 155.113,230.800 154.401 C 232.450 153.689,234.535 152.777,235.432 152.374 C 240.153 150.257,248.827 147.094,255.000 145.240 C 256.782 144.704,263.171 143.186,268.500 142.032 C 272.709 141.120,277.346 140.378,283.600 139.614 C 288.795 138.980,303.187 139.091,307.635 139.800 C 313.762 140.777,316.657 141.524,319.400 142.836 C 320.500 143.362,321.535 143.854,321.700 143.929 C 322.958 144.505,321.553 142.930,319.700 141.687 C 315.514 138.879,312.453 137.946,302.367 136.403 C 299.267 135.928,287.493 135.966,283.200 136.464 M195.909 174.100 C 190.326 180.076,182.000 190.941,182.000 192.252 C 182.000 192.505,182.585 192.808,183.300 192.924 C 184.015 193.040,186.040 193.402,187.800 193.727 C 198.036 195.619,203.829 195.501,215.000 193.172 C 216.320 192.896,217.540 192.551,217.712 192.404 C 218.046 192.117,214.585 186.815,211.704 183.200 C 210.740 181.990,209.666 180.640,209.317 180.200 C 208.316 178.936,203.131 173.143,201.713 171.705 C 199.924 169.890,199.790 169.946,195.909 174.100 M232.800 181.200 C 232.800 181.420,232.950 181.600,233.132 181.600 C 233.315 181.600,233.714 182.095,234.018 182.700 C 234.322 183.305,234.872 184.250,235.239 184.800 C 238.673 189.944,244.586 201.837,247.570 209.600 C 248.288 211.470,249.027 213.360,249.212 213.800 C 249.950 215.560,251.200 219.489,251.200 220.050 C 251.200 221.230,252.251 222.222,252.916 221.670 C 253.447 221.229,253.401 220.854,252.523 218.485 C 251.975 217.008,251.384 215.350,251.209 214.800 C 248.962 207.740,242.243 194.494,236.046 184.907 C 233.586 181.101,232.800 180.204,232.800 181.200 M172.532 209.282 C 171.261 210.945,166.957 222.347,165.416 228.131 L 164.901 230.061 166.351 230.686 C 167.894 231.351,168.372 231.540,171.200 232.601 C 173.202 233.351,174.864 233.886,179.000 235.109 C 183.625 236.477,185.001 236.786,191.767 237.982 C 194.822 238.522,205.178 238.522,208.233 237.982 C 213.208 237.103,214.798 236.747,220.600 235.214 C 222.529 234.704,227.931 232.855,231.521 231.476 L 234.842 230.200 234.597 228.800 C 234.342 227.346,234.234 226.972,232.635 222.000 C 231.298 217.844,229.617 213.610,228.030 210.400 C 227.311 208.946,227.119 208.896,224.800 209.556 C 215.845 212.106,210.230 212.853,200.000 212.853 C 191.781 212.853,189.089 212.609,181.800 211.206 C 179.304 210.726,174.753 209.522,173.564 209.028 C 173.214 208.883,172.750 208.997,172.532 209.282 M161.450 250.063 C 160.468 255.274,160.748 266.981,162.075 276.200 C 162.615 279.952,162.755 280.181,165.165 281.265 C 166.174 281.718,167.900 282.496,169.000 282.993 C 171.068 283.927,176.995 285.967,179.800 286.710 C 185.148 288.127,185.475 288.191,191.600 289.023 C 199.547 290.102,210.706 289.357,218.400 287.232 C 219.170 287.019,220.430 286.677,221.200 286.471 C 225.258 285.386,230.089 283.511,235.425 280.951 L 237.450 279.980 237.917 276.490 C 239.095 267.694,239.300 264.348,239.062 257.800 C 238.927 254.060,238.698 250.489,238.554 249.864 C 238.243 248.512,238.461 248.481,231.800 250.819 C 229.160 251.745,226.460 252.648,225.800 252.824 C 220.396 254.268,217.920 254.885,216.200 255.215 C 203.438 257.663,191.037 257.258,178.600 253.987 C 176.840 253.524,174.860 253.000,174.200 252.824 C 173.540 252.648,170.840 251.745,168.200 250.819 C 161.431 248.443,161.748 248.479,161.450 250.063 M170.400 303.713 C 170.400 304.723,173.371 310.105,176.491 314.747 C 182.054 323.023,189.975 331.093,197.672 336.327 C 199.977 337.894,200.024 337.894,202.328 336.324 C 212.815 329.175,221.909 318.784,228.462 306.459 C 230.311 302.982,230.204 302.859,226.300 303.972 C 217.017 306.620,209.244 307.731,200.000 307.731 C 193.258 307.731,188.278 307.250,182.147 306.007 C 178.364 305.240,177.375 305.001,173.800 303.995 C 170.602 303.095,170.400 303.078,170.400 303.713 " stroke="none" fill="#fbfbf3" fill-rule="evenodd"></path></g></svg>